<svg width="371" height="249" viewBox="0 0 371 249" fill="none" xmlns="http://www.w3.org/2000/svg">
<path d="M0 17C0 7.61115 7.61116 0 17 0H354C363.389 0 371 7.61116 371 17V232C371 241.389 363.389 249 354 249H17C7.61115 249 0 241.389 0 232V17Z" fill="#22A7A0"/>
<path d="M110.84 169.083C111.212 169.427 111.654 169.7 112.142 169.886C112.629 170.072 113.152 170.168 113.68 170.168C114.208 170.168 114.731 170.072 115.218 169.886C115.706 169.7 116.148 169.427 116.52 169.083L132.84 154.123C133.593 153.433 134.016 152.496 134.016 151.52C134.016 150.544 133.593 149.607 132.84 148.917C132.087 148.226 131.065 147.838 130 147.838C128.935 147.838 127.913 148.226 127.16 148.917L113.68 161.31L108.84 156.837C108.087 156.146 107.065 155.758 106 155.758C104.935 155.758 103.913 156.146 103.16 156.837C102.407 157.527 101.984 158.464 101.984 159.44C101.984 160.416 102.407 161.353 103.16 162.043L110.84 169.083ZM154 122.333H81.9999C80.9391 122.333 79.9217 122.72 79.1715 123.407C78.4214 124.095 77.9999 125.028 77.9999 126V192C77.9999 192.972 78.4214 193.905 79.1715 194.593C79.9217 195.28 80.9391 195.667 81.9999 195.667H154C155.061 195.667 156.078 195.28 156.828 194.593C157.579 193.905 158 192.972 158 192V126C158 125.028 157.579 124.095 156.828 123.407C156.078 122.72 155.061 122.333 154 122.333ZM150 188.333H85.9999V129.667H150V188.333Z" fill="white"/>
<path d="M276.826 160.54L251.591 183.237C248.283 185.877 243.977 187.282 239.553 187.165C235.129 187.048 230.922 185.418 227.792 182.608C224.662 179.797 222.847 176.02 222.717 172.047C222.586 168.074 224.151 164.207 227.091 161.237L259.758 131.903C261.708 130.24 264.296 129.312 266.986 129.312C269.676 129.312 272.263 130.24 274.213 131.903C276.113 133.633 277.179 135.964 277.179 138.393C277.179 140.823 276.113 143.154 274.213 144.883L246.038 170.147C245.759 170.416 245.424 170.634 245.051 170.787C244.679 170.941 244.276 171.027 243.867 171.04C243.457 171.054 243.049 170.995 242.665 170.867C242.281 170.739 241.928 170.544 241.628 170.293C241.328 170.043 241.085 169.742 240.915 169.407C240.744 169.073 240.648 168.711 240.633 168.344C240.618 167.976 240.684 167.609 240.826 167.264C240.969 166.919 241.186 166.603 241.465 166.333L262.412 147.56C263.181 146.87 263.613 145.933 263.613 144.957C263.613 143.98 263.181 143.044 262.412 142.353C261.643 141.663 260.6 141.275 259.513 141.275C258.426 141.275 257.383 141.663 256.614 142.353L235.666 161.2C234.618 162.134 233.786 163.245 233.219 164.469C232.651 165.693 232.359 167.006 232.359 168.332C232.359 169.658 232.651 170.97 233.219 172.194C233.786 173.418 234.618 174.529 235.666 175.463C237.808 177.295 240.651 178.316 243.608 178.316C246.566 178.316 249.409 177.295 251.551 175.463L279.685 150.163C282.93 147.035 284.697 142.898 284.613 138.624C284.53 134.349 282.601 130.271 279.234 127.248C275.868 124.225 271.326 122.493 266.566 122.417C261.805 122.342 257.198 123.929 253.715 126.843L221.048 156.177C216.643 160.558 214.29 166.296 214.48 172.196C214.67 178.096 217.388 183.703 222.067 187.848C226.747 191.994 233.027 194.358 239.6 194.448C246.172 194.539 252.53 192.348 257.349 188.333L282.625 165.673C283.005 165.331 283.307 164.926 283.513 164.479C283.72 164.032 283.826 163.553 283.826 163.07C283.826 162.587 283.72 162.108 283.513 161.661C283.307 161.214 283.005 160.809 282.625 160.467C282.244 160.125 281.792 159.854 281.295 159.669C280.797 159.484 280.264 159.388 279.726 159.388C279.187 159.388 278.654 159.484 278.157 159.669C277.659 159.854 277.207 160.125 276.826 160.467V160.54Z" fill="white"/>
<path d="M116.127 76V63.688C116.127 62.968 116.127 62.248 116.127 61.528C116.127 60.784 116.139 60.04 116.163 59.296C115.371 59.992 114.507 60.592 113.571 61.096C112.659 61.6 111.699 61.936 110.691 62.104L110.187 56.128C111.075 56.032 112.011 55.792 112.995 55.408C113.979 55 114.867 54.52 115.659 53.968C116.475 53.392 117.063 52.816 117.423 52.24H123.219V76H116.127Z" fill="white"/>
<path d="M241.169 76V71.464C245.009 69.256 247.793 67.204 249.521 65.308C251.273 63.388 252.149 61.672 252.149 60.16C252.149 59.416 251.945 58.792 251.537 58.288C251.129 57.76 250.493 57.496 249.629 57.496C247.637 57.496 246.653 59.008 246.677 62.032L240.377 60.34C240.377 58.444 240.797 56.872 241.637 55.624C242.501 54.376 243.665 53.44 245.129 52.816C246.617 52.192 248.273 51.88 250.097 51.88C251.801 51.88 253.241 52.12 254.417 52.6C255.617 53.056 256.577 53.668 257.297 54.436C258.041 55.204 258.581 56.044 258.917 56.956C259.253 57.844 259.421 58.72 259.421 59.584C259.421 61.144 259.013 62.572 258.197 63.868C257.405 65.164 256.277 66.376 254.813 67.504C253.373 68.608 251.705 69.664 249.809 70.672V70.744C250.481 70.672 251.297 70.624 252.257 70.6C253.217 70.576 254.153 70.564 255.065 70.564H259.637V76H241.169Z" fill="white"/>
</svg>
