<svg width="371" height="249" viewBox="0 0 371 249" fill="none" xmlns="http://www.w3.org/2000/svg">
<rect width="371" height="249" rx="17" fill="#22A7A0"/>
<path d="M35.5845 55V46.792C35.5845 46.312 35.5845 45.832 35.5845 45.352C35.5845 44.856 35.5925 44.36 35.6085 43.864C35.0805 44.328 34.5045 44.728 33.8805 45.064C33.2725 45.4 32.6325 45.624 31.9605 45.736L31.6245 41.752C32.2165 41.688 32.8405 41.528 33.4965 41.272C34.1525 41 34.7445 40.68 35.2725 40.312C35.8165 39.928 36.2085 39.544 36.4485 39.16H40.3125V55H35.5845Z" fill="white"/>
<path d="M30.613 107V103.976C33.173 102.504 35.029 101.136 36.181 99.872C37.349 98.592 37.933 97.448 37.933 96.44C37.933 95.944 37.797 95.528 37.525 95.192C37.253 94.84 36.829 94.664 36.253 94.664C34.925 94.664 34.269 95.672 34.285 97.688L30.085 96.56C30.085 95.296 30.365 94.248 30.925 93.416C31.501 92.584 32.277 91.96 33.253 91.544C34.245 91.128 35.349 90.92 36.565 90.92C37.701 90.92 38.661 91.08 39.445 91.4C40.245 91.704 40.885 92.112 41.365 92.624C41.861 93.136 42.221 93.696 42.445 94.304C42.669 94.896 42.781 95.48 42.781 96.056C42.781 97.096 42.509 98.048 41.965 98.912C41.437 99.776 40.685 100.584 39.709 101.336C38.749 102.072 37.637 102.776 36.373 103.448V103.496C36.821 103.448 37.365 103.416 38.005 103.4C38.645 103.384 39.269 103.376 39.877 103.376H42.925V107H30.613Z" fill="white"/>
<path d="M36.6598 159.24C33.0438 159.24 30.7798 157.912 29.8678 155.256L34.3318 153.408C34.3478 154.256 34.5478 154.832 34.9318 155.136C35.3318 155.424 35.8038 155.568 36.3478 155.568C36.8758 155.568 37.2998 155.432 37.6198 155.16C37.9398 154.888 38.0998 154.504 38.0998 154.008C38.0998 153.48 37.9318 153.112 37.5958 152.904C37.2758 152.68 36.8678 152.568 36.3718 152.568C35.9718 152.568 35.5798 152.6 35.1958 152.664V149.688C35.3078 149.688 35.4278 149.696 35.5558 149.712C35.6998 149.728 35.8678 149.736 36.0598 149.736C36.6518 149.736 37.0838 149.608 37.3558 149.352C37.6278 149.096 37.7638 148.68 37.7638 148.104C37.7638 147.624 37.6278 147.256 37.3558 147C37.0998 146.728 36.7398 146.592 36.2758 146.592C35.7798 146.592 35.3558 146.744 35.0038 147.048C34.6678 147.336 34.4758 147.872 34.4278 148.656L30.1798 147.288C30.3078 146.328 30.6678 145.528 31.2598 144.888C31.8678 144.232 32.6278 143.744 33.5398 143.424C34.4678 143.088 35.4918 142.92 36.6118 142.92C38.4838 142.92 39.9318 143.312 40.9558 144.096C41.9798 144.864 42.4918 145.952 42.4918 147.36C42.4918 148.08 42.3718 148.68 42.1318 149.16C41.8918 149.624 41.5958 149.992 41.2438 150.264C40.9078 150.52 40.5798 150.712 40.2598 150.84C39.9398 150.952 39.6918 151.008 39.5158 151.008V151.104C39.7078 151.104 39.9798 151.144 40.3318 151.224C40.6998 151.304 41.0678 151.464 41.4358 151.704C41.8198 151.928 42.1398 152.256 42.3958 152.688C42.6678 153.12 42.8038 153.696 42.8038 154.416C42.8038 155.424 42.5238 156.288 41.9638 157.008C41.4198 157.728 40.6838 158.28 39.7558 158.664C38.8278 159.048 37.7958 159.24 36.6598 159.24Z" fill="white"/>
<path d="M36.8498 211V207.76H29.1218V204.76C29.3138 204.424 29.5618 204.008 29.8658 203.512C30.1858 203 30.5618 202.416 30.9938 201.76L35.4098 195.16H41.1218V204.52H43.3778V207.76H41.1218V211H36.8498ZM32.8658 204.52H36.9218V200.104C36.9218 199.832 36.9218 199.544 36.9218 199.24C36.9378 198.92 36.9538 198.592 36.9698 198.256H36.9218C36.6018 198.896 36.2578 199.488 35.8898 200.032L33.5378 203.536C33.4418 203.696 33.3378 203.856 33.2258 204.016C33.1138 204.176 32.9938 204.344 32.8658 204.52Z" fill="white"/>
<rect x="59" y="29" width="127" height="35" rx="3" fill="#FF6380"/>
<rect x="203" y="81" width="127" height="35" rx="3" fill="#FF6380"/>
<rect x="59" y="133" width="127" height="35" rx="3" fill="#FF6380"/>
<rect x="203" y="182" width="127" height="35" rx="3" fill="#FF6380"/>
<rect x="203" y="29" width="127" height="35" rx="3" fill="white"/>
<rect x="59" y="81" width="127" height="35" rx="3" fill="white"/>
<path d="M203 136C203 134.343 204.343 133 206 133H327C328.657 133 330 134.343 330 136V165C330 166.657 328.657 168 327 168H206C204.343 168 203 166.657 203 165V136Z" fill="white"/>
<rect x="59" y="185" width="127" height="35" rx="3" fill="white"/>
</svg>
